<svg xmlns="http://www.w3.org/2000/svg" width="97" height="37" viewBox="0 0 97 37" fill="none"><script xmlns=""/>
<path d="M40.0693 24.0189C40.0693 23.6464 40.3628 23.3434 40.7237 23.3434H47.1735C47.5441 23.3434 47.8447 23.6546 47.8447 24.0363V27.9335C47.8447 28.3161 47.5432 28.6273 47.1726 28.6273H40.0675V24.0189H40.0693ZM47.1735 20.8182H40.7237C39.014 20.8182 37.6226 22.2542 37.6226 24.0189V34H40.0684V31.1517H47.1735C48.8929 31.1517 50.2914 29.7083 50.2914 27.9335V24.0363C50.2914 22.2616 48.8929 20.8182 47.1735 20.8182Z" fill="black"/>
<path d="M78.6836 30.7809C78.6836 31.1635 78.3821 31.4747 78.0122 31.4747H71.0917C70.721 31.4747 70.4203 31.1635 70.4203 30.7818V24.0362C70.4203 23.6536 70.7219 23.3424 71.0917 23.3424H78.0122C78.3829 23.3424 78.6836 23.6536 78.6836 24.0353V30.7809ZM78.0122 20.818H71.0917C69.3721 20.818 67.9736 22.2614 67.9736 24.0362V30.7818C67.9736 32.5556 69.3721 33.999 71.0917 33.999H71.5519H77.5529H78.0131C79.7327 33.999 81.1312 32.5556 81.1312 30.7809V24.0353C81.1303 22.2614 79.7318 20.818 78.0122 20.818Z" fill="black"/>
<path d="M63.1591 27.409C63.1591 27.7916 62.8575 28.1028 62.4868 28.1028H55.0271V24.0179C55.0271 23.6454 55.3206 23.3424 55.6816 23.3424H62.4859C62.8566 23.3424 63.1573 23.6537 63.1573 24.0353V27.409H63.1591ZM62.4868 20.8172H55.6824C53.9727 20.8172 52.5813 22.2533 52.5813 24.0179V33.999H55.0271V30.6263H59.6881L61.899 33.999H64.6897L62.3902 30.6263H62.4868C64.2064 30.6263 65.6049 29.1828 65.6049 27.4081V24.0353C65.6049 22.2615 64.2064 20.8172 62.4868 20.8172Z" fill="black"/>
<path d="M52.6505 8.34217H50.2029V17.0068H52.6505V8.34217Z" fill="black"/>
<path d="M52.6505 4.01015H50.2029V6.49219H52.6505V4.01015Z" fill="black"/>
<path d="M40.7724 6.49398H48.0504V4.01011H40.7724C39.0777 4.01011 37.6987 5.41362 37.6987 7.13844V16.9863H40.1392V12.2768H46.275V9.79472H40.1392V7.13844C40.1392 6.78373 40.4239 6.49398 40.7724 6.49398Z" fill="black"/>
<path fill-rule="evenodd" clip-rule="evenodd" d="M57.9492 12.7806L54.4521 8.34217H57.1951L59.3206 11.0399L61.4462 8.34217H64.1891L60.6921 12.7806L64.0219 17.0068H61.2789L59.3206 14.5213L57.3623 17.0068H54.6194L57.9492 12.7806Z" fill="black"/>
<path d="M68.5323 3.90354H66.0847V17.0918H68.5323V3.90354Z" fill="#3CBD0C"/>
<path d="M73.9238 14.5746C73.554 14.5746 73.2543 14.2652 73.2543 13.8835V7.15992C73.2543 6.77824 73.5549 6.46885 73.9238 6.46885H80.8232C81.193 6.46885 81.4927 6.77824 81.4927 7.15992V10.5702H81.491V13.9275C81.4705 14.2725 81.2037 14.549 80.8711 14.5737H78.8855V14.5755H73.9238V14.5746ZM83.9305 13.8826V10.5693V7.159C83.9305 5.39069 82.5365 3.95185 80.8223 3.95185H73.923C72.2061 3.95185 70.8147 5.38794 70.8147 7.15992V13.8835C70.8147 15.6518 72.2088 17.0907 73.923 17.0907H74.3815H80.363H80.8214H80.8666H82.2456L82.8841 17.9611C83.0074 18.1286 83.2388 18.1616 83.4011 18.0343L84.757 16.9744C84.9193 16.8472 84.9513 16.6083 84.828 16.4408L83.9279 15.2153V13.8826H83.9305Z" fill="#3CBD0C"/>
<path d="M13.9503 13.7531L3.6634 3.13593L1.0686 5.81404L11.3555 16.4313C13.1575 18.2911 16.0892 18.2911 17.8904 16.4313L22.1949 11.9885L19.6001 9.31039L15.2956 13.7531C14.9258 14.1357 14.3219 14.1357 13.9503 13.7531Z" fill="black"/>
<path d="M2.01039 9.44647C0.734284 11.6843 0 14.2892 0 17.0688H3.66875C3.66875 15.3436 4.04647 13.708 4.72048 12.2435L2.01039 9.44647Z" fill="#3CBD0C"/>
<path d="M14.6011 1.99976C11.8892 1.99976 9.34853 2.76771 7.16968 4.10305L9.87613 6.8965C11.3074 6.18534 12.9099 5.78714 14.6011 5.78714C20.6287 5.78714 25.5327 10.8487 25.5327 17.0698H29.2014C29.2005 8.75913 22.6515 1.99976 14.6011 1.99976Z" fill="#3CBD0C"/>
<script xmlns=""/><script xmlns=""/></svg>