<?xml version="1.0" standalone="no"?>
<!DOCTYPE svg PUBLIC "-//W3C//DTD SVG 20010904//EN"
 "http://www.w3.org/TR/2001/REC-SVG-20010904/DTD/svg10.dtd">
<svg version="1.0" xmlns="http://www.w3.org/2000/svg"
 width="519.000000pt" height="202.000000pt" viewBox="0 0 519.000000 202.000000"
 preserveAspectRatio="xMidYMid meet">

<g transform="translate(0.000000,202.000000) scale(0.100000,-0.100000)"
fill="#000000" stroke="none">
<path d="M3423 1650 c-65 -39 -131 -151 -258 -434 -67 -151 -124 -250 -149
-259 -24 -9 -25 29 -9 177 8 77 16 197 17 266 1 110 -2 130 -21 170 -13 25
-36 53 -52 63 -37 22 -91 23 -91 2 0 -10 10 -15 31 -15 76 0 103 -47 104 -185
1 -55 -4 -152 -11 -215 -18 -169 -18 -265 2 -285 18 -17 48 -13 76 13 21 18
95 161 169 327 94 212 158 311 228 356 20 12 21 17 9 26 -11 10 -21 8 -45 -7z"/>
<path d="M624 1567 c-2 -96 -38 -281 -96 -489 -22 -81 -37 -155 -34 -165 9
-23 16 -12 66 102 104 243 219 444 299 524 39 39 85 61 99 47 14 -15 1 -119
-33 -271 -54 -238 -57 -346 -9 -386 24 -19 29 -1 10 33 -25 41 -17 147 24 323
17 72 34 167 37 211 5 74 4 83 -16 103 -68 68 -177 -37 -318 -304 -29 -55 -53
-95 -53 -90 0 6 9 51 19 100 30 137 45 285 32 318 -18 46 -26 30 -27 -56z"/>
<path d="M1393 1422 c-20 -48 -22 -49 -81 -61 -34 -6 -64 -17 -68 -22 -13 -22
12 -28 59 -14 56 17 56 18 23 -89 -15 -48 -35 -90 -53 -108 -37 -40 -102 -73
-116 -59 -10 10 -8 18 24 128 14 47 9 60 -18 48 -10 -5 -38 -8 -63 -7 -50 2
-75 -13 -109 -69 -25 -41 -27 -76 -5 -107 23 -33 61 -28 99 12 l33 35 5 -29
c4 -16 15 -34 26 -40 27 -14 93 13 126 52 16 19 25 24 25 14 0 -26 22 -65 41
-71 22 -7 54 8 92 43 20 19 27 22 27 10 0 -22 33 -48 60 -48 13 0 36 15 55 34
l33 35 5 -29 c9 -45 38 -55 92 -31 24 11 50 29 57 40 18 29 28 26 28 -9 0 -17
9 -39 20 -50 33 -33 66 -25 123 29 52 49 53 49 55 24 5 -63 66 -73 127 -20
l39 34 16 -31 c24 -48 72 -48 130 0 17 15 32 25 33 23 1 -2 7 -13 13 -24 19
-35 60 -31 100 9 20 20 37 36 38 36 1 0 2 -10 3 -22 1 -13 12 -31 24 -41 24
-20 48 -16 92 16 31 21 90 97 82 105 -2 3 -27 -16 -55 -42 -56 -52 -99 -74
-111 -55 -4 7 -1 33 8 58 24 78 28 121 10 121 -9 0 -18 -4 -21 -9 -3 -5 -26
-6 -51 -4 -41 5 -47 3 -77 -29 -18 -19 -46 -51 -62 -72 -33 -43 -81 -76 -113
-76 -29 0 -30 21 -3 101 20 57 20 79 0 79 -4 0 -16 -20 -26 -45 -19 -50 -88
-121 -129 -131 -44 -11 -50 7 -26 86 20 66 21 90 2 90 -4 0 -13 -16 -20 -35
-29 -80 -135 -177 -177 -161 -32 12 -5 141 67 310 16 37 29 74 29 82 0 25 -28
15 -38 -13 -65 -177 -106 -271 -129 -296 -37 -39 -102 -72 -116 -58 -10 10 -8
18 24 128 14 47 7 63 -20 46 -9 -6 -37 -9 -62 -6 -49 6 -57 0 -137 -96 -54
-64 -94 -87 -112 -66 -15 18 -2 95 34 201 l23 69 44 7 c24 3 79 7 122 7 49 1
76 5 72 11 -4 6 -54 10 -116 10 l-110 0 16 30 c19 36 19 60 1 60 -7 0 -22 -22
-33 -48z m-277 -217 c7 -18 -39 -99 -68 -120 -34 -23 -48 -19 -48 16 0 24 11
42 44 75 46 47 63 53 72 29z m490 1 c7 -18 -17 -64 -54 -104 -39 -42 -62 -42
-62 -1 0 24 11 42 44 75 46 46 63 53 72 30z m874 -9 c0 -24 -42 -90 -73 -116
-21 -17 -47 -8 -47 16 0 29 37 82 72 103 42 26 48 25 48 -3z"/>
<path d="M4086 1421 c-24 -47 -27 -49 -85 -60 -33 -7 -63 -17 -67 -22 -11 -18
11 -30 37 -21 13 5 36 12 51 15 l26 7 -14 -48 c-8 -26 -19 -63 -24 -83 -9 -31
-16 -38 -52 -49 -24 -7 -59 -21 -79 -31 -37 -18 -37 -18 -43 4 -12 46 -6 94
14 112 22 20 36 13 42 -19 5 -30 28 -32 28 -3 0 26 -41 67 -66 67 -8 0 -23 -9
-34 -20 -22 -22 -27 -82 -11 -138 9 -29 7 -34 -20 -55 -68 -49 -93 -149 -47
-181 32 -23 65 -20 94 9 24 24 25 31 22 103 l-3 77 54 28 c74 37 86 35 88 -10
1 -21 10 -45 22 -56 17 -18 23 -19 49 -8 17 7 40 23 53 37 l22 24 19 -30 c25
-42 61 -40 104 5 l32 35 7 -31 c14 -63 79 -57 147 13 65 67 63 95 -2 34 -54
-51 -97 -73 -113 -57 -6 6 -2 35 12 79 11 39 21 77 21 86 0 17 -25 22 -34 7
-3 -5 -26 -6 -51 -3 -49 5 -44 8 -168 -125 -42 -45 -71 -58 -87 -37 -13 15 6
120 38 214 18 53 20 55 63 62 24 3 79 7 122 7 44 1 77 5 77 11 0 6 -44 10
-111 10 -111 0 -111 0 -104 23 25 82 8 93 -29 18z m214 -227 c0 -37 -77 -124
-109 -124 -29 0 -1 78 41 116 38 35 68 39 68 8z m-469 -237 c-14 -37 -56 -56
-77 -35 -14 13 -14 19 -1 49 8 19 27 48 43 64 l28 30 9 -40 c5 -25 5 -50 -2
-68z"/>
<path d="M2045 1301 c-7 -22 0 -41 14 -41 15 0 19 39 6 50 -10 8 -15 6 -20 -9z"/>
<path d="M2224 1306 c-8 -21 3 -49 16 -41 5 3 10 15 10 25 0 25 -18 36 -26 16z"/>
<path d="M3600 1238 c-6 -24 -13 -48 -15 -55 -4 -11 -88 -53 -107 -53 -5 0 -8
10 -7 23 7 77 -15 75 -96 -10 -49 -52 -67 -65 -76 -56 -9 9 -7 24 9 64 24 55
28 89 12 89 -5 0 -18 -17 -29 -37 -72 -143 18 -208 117 -86 31 37 31 37 32 12
0 -20 -12 -34 -53 -62 -66 -46 -163 -142 -194 -194 -27 -44 -31 -114 -8 -133
23 -19 81 -14 119 9 58 36 116 151 155 306 9 35 18 44 56 63 61 29 64 28 54
-15 -23 -98 2 -111 44 -23 47 100 107 148 115 93 4 -25 32 -40 32 -17 0 19
-19 56 -34 66 -21 14 -44 8 -76 -19 l-32 -27 7 35 c4 19 7 36 7 39 1 46 -19
38 -32 -12z m-184 -215 c-25 -111 -96 -226 -159 -256 -71 -35 -81 16 -21 106
29 44 162 177 177 177 5 0 6 -12 3 -27z"/>
</g>
</svg>
